# xmcd CD database file
#
# Track frame offsets:
#	150
#	6720
#	9382
#	19610
#	32232
#	52870
#	58945
#	67690
#	96415
#	115192
#	120482
#	133585
#	137167
#	173880
#	182232
#	195417
#	207097
#	218450
#	228497
#	258677
#
# Disc length: 3508 seconds
#
# Revision: 0
# Processed by: cddbd v1.5.1PL0 Copyright (c) Steve Scherf et al.
# Submitted via: CDex 1.51
#
DISCID=180db214
DTITLE=Stefan Grossman, et. al. - Fingerpicking Country Blues Guitar
DYEAR=1999
DGENRE=Blues
TTITLE0=Intro - Tuning
TTITLE1=Freight Train Intro
TTITLE2=Elizabeth Cotton - Freight Train
TTITLE3=Freight Train, Alternating Bass Technique
TTITLE4=Freight Train, Note by note
TTITLE5=Freight Train, Performance and explanation
TTITLE6=Ragtime Mama Blues
TTITLE7=Ragtmie Mama Blues - Instruction
TTITLE8=Ragtime Mama Blues - Instruction 2
TTITLE9=Ragtime Mama Blues - Performance
TTITLE10=Blind Boy Fuller - Rag Mama Rag
TTITLE11=Fare Thee Well Titanic
TTITLE12=Fare Thee Well Titanic Lesson
TTITLE13=Fare Thee Well Titanic Slow - Fast
TTITLE14=Dan W. Quinn - Bill Bailey
TTITLE15=Big Bill Broonzy - Bill Bailey
TTITLE16=Rev. Gary Davis - Bill Bailey
TTITLE17=Bill Bailey - Performance
TTITLE18=Bill Bailey - Instruction
TTITLE19=Bill Bailey - Up to speed
EXTD=YEAR: 1999
EXTT0=
EXTT1=
EXTT2=
EXTT3=
EXTT4=
EXTT5=
EXTT6=
EXTT7=
EXTT8=
EXTT9=
EXTT10=
EXTT11=
EXTT12=
EXTT13=
EXTT14=
EXTT15=
EXTT16=
EXTT17=
EXTT18=
EXTT19=
PLAYORDER=
